<svg width="36.000000" height="38.000000" viewBox="0 0 36 38" fill="none" xmlns="http://www.w3.org/2000/svg" xmlns:xlink="http://www.w3.org/1999/xlink">
	<desc>
			Created with Pixso.
	</desc>
	<defs/>
	<path id="Vector" d="M35.5856 14.8369C35.0908 15.3634 34.3619 15.3634 34.1223 15.3634C33.6781 15.3634 33.1288 15.2896 32.3417 15.1238C31.7235 14.9937 31.1912 14.8639 30.7217 14.7495C29.7982 14.5244 29.1309 14.3617 28.5026 14.3617C28.1484 14.3617 27.5023 14.5156 26.8181 14.6788C25.7528 14.9329 24.427 15.2488 23.1448 15.2488C21.8501 15.2488 20.4874 15.1478 19.6288 15.0698C19.3436 16.1428 18.6652 17.9122 17.1251 19.1787C15.0314 20.9005 13.479 21.6686 13.4139 21.7003C13.0162 21.895 12.5381 21.793 12.2539 21.4526C11.9697 21.1125 11.9529 20.6221 12.213 20.2632C12.2216 20.251 13.2681 18.7662 13.2278 17.0977C13.2119 16.4338 13.1879 15.9137 13.1633 15.5175C11.8593 15.9033 9.63867 16.7659 8.49329 18.3895C6.75806 20.8488 6.04626 24.635 6.23694 25.8771C6.43542 27.1713 6.45911 27.1713 7.07092 27.1713C8.40405 27.1713 9.52393 27.226 10.7853 27.9152C11.9011 28.5247 12.5156 29.1914 12.5819 29.2655C12.8322 29.5446 12.8988 29.9437 12.7528 30.2893C12.6068 30.635 12.2747 30.8645 11.9009 30.8779C11.5403 30.8915 10.4492 30.9827 9.74805 31.2382C9.37573 31.3738 9.05493 31.5326 8.74475 31.6862C8.24854 31.932 7.77979 32.1641 7.23291 32.2289C7.05505 32.25 6.87244 32.2604 6.69958 32.2571C6.49805 32.7271 6.15503 33.2874 5.578 33.7318C5.13623 34.0721 4.68689 34.2821 4.29041 34.4672C3.80347 34.6946 3.41882 34.8743 3.12341 35.2418C2.34949 36.2051 2.08972 37.2496 2.08728 37.26C1.98608 37.6771 1.62219 37.9795 1.19495 37.999C1.18018 37.9998 1.16528 38 1.15051 38C0.740723 38 0.373169 37.7407 0.239502 37.3484C0.179321 37.1722 -0.328247 35.5576 0.347168 33.1942C0.588745 32.3494 0.962891 31.618 1.32458 30.9105C1.91321 29.7599 2.42151 28.7661 2.20825 27.5485C1.20569 21.8251 1.2749 17.1716 2.41382 13.7175C4.18469 8.3457 8.47168 5.35266 9.31311 4.80737C9.73047 4.53662 10.1062 4.29846 10.4229 4.10059C10.1292 3.86572 9.75598 3.61914 9.31213 3.42981C8.30225 2.99878 7.87769 2.8811 7.76013 2.85291C7.75256 2.85315 7.74524 2.85315 7.73792 2.85315C7.3186 2.85339 6.99634 2.57544 6.87378 2.16516C6.74634 1.73914 6.98303 1.28174 7.3645 1.05554C7.43701 1.01245 9.17212 0 11.4587 0C11.9307 0 12.3994 0.043457 12.8521 0.12915C14.2622 0.39624 15.2588 0.79541 16.2227 1.18127C17.1637 1.55811 18.0526 1.91394 19.3796 2.19458C20.0244 2.33093 20.618 2.43604 21.1921 2.53784C23.1674 2.88782 24.8732 3.19019 27.4235 4.49731C30.7521 6.20361 32.6238 8.07043 32.6938 9.75366C32.7086 10.1084 32.7009 10.4254 32.6707 10.7041C32.9822 10.8604 33.3607 11.058 33.743 11.2762C35.2997 12.1648 35.9524 12.8303 35.996 13.573C36.0261 14.0897 35.8881 14.5149 35.5856 14.8369Z" fill="#0057FF" fill-opacity="1.000000" fill-rule="nonzero"/>
</svg>
